<svg width="18" height="13" viewBox="0 0 18 13" fill="none" xmlns="http://www.w3.org/2000/svg">
<path fill-rule="evenodd" clip-rule="evenodd" d="M9.31324 0.0425888C9.70857 -0.0889568 10.1367 0.124886 10.2684 0.520191L13.3581 9.79118L16.5313 0.530018C16.6664 0.135727 17.0952 -0.0747273 17.4895 0.0602778C17.8833 0.195499 18.0939 0.624394 17.9592 1.01843L14.0627 12.3934C13.9578 12.6993 13.6687 12.9046 13.3453 12.9035C13.022 12.9021 12.7355 12.6941 12.6329 12.3875L8.83564 0.997793C8.70383 0.60236 8.91781 0.174403 9.31324 0.0425888ZM3.07788 0.708873C4.62041 -0.0707156 6.20701 -0.00932289 6.49775 0.0091763C6.91356 0.035704 7.22961 0.395288 7.20334 0.811076C7.17667 1.2269 6.81732 1.54218 6.40144 1.51569C6.19883 1.50284 4.93948 1.45956 3.75891 2.05618C3.18202 2.34776 2.63082 2.78875 2.21997 3.46246C1.80889 4.13675 1.50952 5.09152 1.50946 6.45386C1.50953 7.80389 1.80446 8.74348 2.20817 9.403C2.61137 10.0613 3.15298 10.4886 3.72255 10.769C4.89051 11.3438 6.14721 11.2873 6.40537 11.2721C6.82134 11.2477 7.17871 11.5658 7.20334 11.9817C7.22772 12.3977 6.90991 12.7552 6.49382 12.7796C6.1834 12.7978 4.59297 12.8803 3.05626 12.1242C2.27339 11.7388 1.49653 11.1321 0.920809 10.1921C0.345865 9.25324 6.98173e-05 8.02862 0 6.45386C6.26196e-05 4.86486 0.35179 3.62719 0.931619 2.67628C1.5118 1.72494 2.29257 1.1058 3.07788 0.708873Z" fill="#435165"/>
</svg>
