<svg width="40" height="40" viewBox="0 0 40 40" fill="none" xmlns="http://www.w3.org/2000/svg">
<path d="M20.375 13.6292C20.7678 13.4986 21.1933 13.7111 21.3242 14.1038L24.3945 23.3167L27.5479 14.1136C27.6822 13.722 28.1083 13.5127 28.5 13.6468C28.8914 13.7811 29.1005 14.2074 28.9668 14.599L25.0947 25.9027C24.9904 26.2067 24.7032 26.4106 24.3818 26.4095C24.0604 26.4081 23.7757 26.2017 23.6738 25.8968L19.9004 14.5785C19.7694 14.1855 19.982 13.7602 20.375 13.6292ZM14.1787 14.2923C15.7117 13.5176 17.2883 13.5786 17.5771 13.597C17.9905 13.6234 18.3047 13.9805 18.2783 14.3939C18.2517 14.807 17.8946 15.1204 17.4814 15.0941C17.2802 15.0813 16.0287 15.0383 14.8555 15.6312C14.2822 15.921 13.7344 16.3592 13.3262 17.0287C12.9177 17.6988 12.6201 18.6475 12.6201 20.0013C12.6202 21.343 12.9132 22.2766 13.3145 22.932C13.7152 23.5862 14.2533 24.0107 14.8193 24.2894C15.9799 24.8605 17.2287 24.8044 17.4854 24.7894C17.8989 24.7651 18.2541 25.081 18.2783 25.4945C18.3024 25.9079 17.9867 26.2632 17.5732 26.2874C17.2647 26.3055 15.6842 26.3875 14.1572 25.6361C13.3792 25.2532 12.6073 24.6503 12.0352 23.7162C11.4637 22.7831 11.1202 21.5663 11.1201 20.0013C11.1201 18.4222 11.4698 17.1924 12.0459 16.2474C12.6224 15.302 13.3984 14.6868 14.1787 14.2923Z" fill="#435165"/>
</svg>
