<svg width="16" height="16" viewBox="0 0 16 16" fill="none" xmlns="http://www.w3.org/2000/svg">
<path d="M7.5 8C7.77614 8 8 8.22386 8 8.5V11C8 11.2761 7.77614 11.5 7.5 11.5C7.22386 11.5 7 11.2761 7 11V9.70703L2.85352 13.8535C2.65825 14.0488 2.34175 14.0488 2.14648 13.8535C1.95122 13.6583 1.95122 13.3417 2.14648 13.1465L6.29297 9H5C4.72386 9 4.5 8.77614 4.5 8.5C4.5 8.22386 4.72386 8 5 8H7.5ZM12.5 2C13.3284 2 14 2.67157 14 3.5V12.5C14 13.3284 13.3284 14 12.5 14H7.5C7.22386 14 7 13.7761 7 13.5C7 13.2239 7.22386 13 7.5 13H12.5C12.7761 13 13 12.7761 13 12.5V3.5C13 3.22386 12.7761 3 12.5 3H3.5C3.22386 3 3 3.22386 3 3.5V7.5C3 7.77614 2.77614 8 2.5 8C2.22386 8 2 7.77614 2 7.5V3.5C2 2.67157 2.67157 2 3.5 2H12.5Z" fill="#1C64D9"/>
</svg>
