<svg width="18" height="18" viewBox="0 0 18 18" fill="none" xmlns="http://www.w3.org/2000/svg">
<path fill-rule="evenodd" clip-rule="evenodd" d="M15.75 0C16.9926 0 18 1.00736 18 2.25V15.75C18 16.9926 16.9926 18 15.75 18H2.25C1.00736 18 0 16.9926 0 15.75V2.25C0 1.00736 1.00736 0 2.25 0H15.75ZM2.25 1.5C1.83579 1.5 1.5 1.83579 1.5 2.25V15.75C1.5 16.1642 1.83579 16.5 2.25 16.5H15.75C16.1642 16.5 16.5 16.1642 16.5 15.75V2.25C16.5 1.83579 16.1642 1.5 15.75 1.5H2.25ZM8.36328 6.52051C8.77749 6.52051 9.11328 6.85629 9.11328 7.27051V7.31934C9.56808 7.02566 10.1522 6.8292 10.8926 6.8291C11.6101 6.8291 12.1984 7.01501 12.6631 7.33301C13.1221 7.64716 13.4173 8.06005 13.6055 8.44629C13.7921 8.82962 13.8816 9.20389 13.9258 9.47559C13.9481 9.61297 13.9599 9.72977 13.9658 9.81445C13.9687 9.85651 13.9699 9.89199 13.9707 9.91797C13.9711 9.93085 13.9715 9.9427 13.9717 9.95117V13.5176C13.9713 13.9315 13.6356 14.2676 13.2217 14.2676C12.808 14.2673 12.4721 13.9313 12.4717 13.5176V9.9668C12.4714 9.95789 12.4703 9.94127 12.4688 9.91895C12.4656 9.87308 12.4593 9.80196 12.4453 9.71582C12.4167 9.53961 12.3609 9.31622 12.2568 9.10254C12.1538 8.89111 12.0114 8.7054 11.8154 8.57129C11.6251 8.44114 11.3393 8.3291 10.8926 8.3291C10.0513 8.32929 9.64285 8.7321 9.40625 9.14648C9.27973 9.36827 9.20299 9.59746 9.15918 9.77539C9.13774 9.86256 9.12528 9.93412 9.11816 9.98047C9.11611 9.9939 9.11443 10.0059 9.11328 10.0146V13.5176C9.11289 13.9315 8.77725 14.2676 8.36328 14.2676C7.94944 14.2674 7.61368 13.9314 7.61328 13.5176V7.27051C7.61328 6.85639 7.9492 6.52066 8.36328 6.52051ZM6 6.75C6.41421 6.75 6.75 7.08579 6.75 7.5V13.5C6.74999 13.9142 6.41421 14.25 6 14.25C5.5858 14.25 5.25001 13.9142 5.25 13.5V7.5C5.25 7.08579 5.58579 6.75 6 6.75ZM6 4.42969C6.41421 4.42969 6.75 4.76548 6.75 5.17969V5.26758C6.75 5.68179 6.41421 6.01758 6 6.01758C5.58579 6.01758 5.25 5.68179 5.25 5.26758V5.17969C5.25 4.76548 5.58579 4.42969 6 4.42969Z" fill="#435165"/>
</svg>
