<svg width="20" height="20" viewBox="0 0 20 20" fill="none" xmlns="http://www.w3.org/2000/svg">
<g clip-path="url(#clip0_369_1763)">
<path d="M1.72366 4.5685L9.11949 11.9652C9.33828 12.1841 9.63053 12.3141 9.93965 12.3299C10.2488 12.3458 10.5528 12.2464 10.7928 12.051L10.8878 11.9652L18.2787 4.5735C18.3028 4.66516 18.3187 4.7585 18.327 4.85433L18.3337 5.00016V15.0002C18.3338 15.4206 18.175 15.8256 17.8891 16.134C17.6032 16.4423 17.2113 16.6311 16.792 16.6627L16.667 16.6668H3.33366C2.91318 16.667 2.50819 16.5082 2.19987 16.2222C1.89155 15.9363 1.70269 15.5445 1.67116 15.1252L1.66699 15.0002V5.00016C1.66699 4.90016 1.67533 4.8035 1.69199 4.7085L1.72366 4.5685ZM16.667 3.3335C16.7678 3.3335 16.867 3.34183 16.9628 3.35933L17.1045 3.39183L10.0045 10.4918L2.90199 3.39016C2.99366 3.36516 3.08866 3.3485 3.18533 3.34016L3.33366 3.3335H16.667Z" fill="#435165"/>
</g>
<defs>
<clipPath id="clip0_369_1763">
<rect width="20" height="20" fill="white"/>
</clipPath>
</defs>
</svg>
