<svg width="20" height="20" viewBox="0 0 20 20" fill="none" xmlns="http://www.w3.org/2000/svg">
<g clip-path="url(#clip0_369_1754)">
<path fill-rule="evenodd" clip-rule="evenodd" d="M15 2.5C15.663 2.5 16.2989 2.76339 16.7678 3.23223C17.2366 3.70107 17.5 4.33696 17.5 5V15C17.5 15.663 17.2366 16.2989 16.7678 16.7678C16.2989 17.2366 15.663 17.5 15 17.5H5C4.33696 17.5 3.70107 17.2366 3.23223 16.7678C2.76339 16.2989 2.5 15.663 2.5 15V5C2.5 4.33696 2.76339 3.70107 3.23223 3.23223C3.70107 2.76339 4.33696 2.5 5 2.5H15ZM6.66667 8.33333C6.44565 8.33333 6.23369 8.42113 6.07741 8.57741C5.92113 8.73369 5.83333 8.94565 5.83333 9.16667V13.3333C5.83333 13.5543 5.92113 13.7663 6.07741 13.9226C6.23369 14.0789 6.44565 14.1667 6.66667 14.1667C6.88768 14.1667 7.09964 14.0789 7.25592 13.9226C7.4122 13.7663 7.5 13.5543 7.5 13.3333V9.16667C7.5 8.94565 7.4122 8.73369 7.25592 8.57741C7.09964 8.42113 6.88768 8.33333 6.66667 8.33333ZM9.16667 7.5C8.94565 7.5 8.73369 7.5878 8.57741 7.74408C8.42113 7.90036 8.33333 8.11232 8.33333 8.33333V13.3333C8.33333 13.5543 8.42113 13.7663 8.57741 13.9226C8.73369 14.0789 8.94565 14.1667 9.16667 14.1667C9.38768 14.1667 9.59964 14.0789 9.75592 13.9226C9.9122 13.7663 10 13.5543 10 13.3333V10.2833C10.2542 9.99667 10.6833 9.66 11.1608 9.45583C11.4383 9.3375 11.8558 9.28917 12.1458 9.38083C12.242 9.40524 12.3277 9.46022 12.39 9.5375C12.4333 9.59583 12.5 9.72583 12.5 10V13.3333C12.5 13.5543 12.5878 13.7663 12.7441 13.9226C12.9004 14.0789 13.1123 14.1667 13.3333 14.1667C13.5543 14.1667 13.7663 14.0789 13.9226 13.9226C14.0789 13.7663 14.1667 13.5543 14.1667 13.3333V10C14.1667 9.44167 14.025 8.945 13.73 8.54667C13.4585 8.18546 13.0786 7.9206 12.6458 7.79083C11.8942 7.555 11.0617 7.68583 10.5058 7.92417C10.3277 8.00039 10.1544 8.08721 9.98667 8.18417C9.95173 7.99216 9.85052 7.8185 9.70066 7.69347C9.55081 7.56844 9.36183 7.49997 9.16667 7.5ZM6.66667 5.83333C6.44565 5.83333 6.23369 5.92113 6.07741 6.07741C5.92113 6.23369 5.83333 6.44565 5.83333 6.66667C5.83333 6.88768 5.92113 7.09964 6.07741 7.25592C6.23369 7.4122 6.44565 7.5 6.66667 7.5C6.88768 7.5 7.09964 7.4122 7.25592 7.25592C7.4122 7.09964 7.5 6.88768 7.5 6.66667C7.5 6.44565 7.4122 6.23369 7.25592 6.07741C7.09964 5.92113 6.88768 5.83333 6.66667 5.83333Z" fill="#435165"/>
</g>
<defs>
<clipPath id="clip0_369_1754">
<rect width="20" height="20" fill="white"/>
</clipPath>
</defs>
</svg>
