<svg width="24" height="24" viewBox="0 0 24 24" fill="none" xmlns="http://www.w3.org/2000/svg">
<path d="M19.8906 3.09147C20.1405 2.95515 20.4463 2.97234 20.6797 3.13541C20.9129 3.29857 21.0344 3.57949 20.9922 3.861L18.7422 18.861C18.7078 19.09 18.569 19.2906 18.3672 19.404C18.1654 19.5171 17.9222 19.5308 17.709 19.4411L12.833 17.3874L12.5996 17.6999L10.3496 20.6999C10.1675 20.9422 9.85713 21.0515 9.56346 20.9762C9.27001 20.9008 9.05082 20.656 9.00779 20.3561L8.3115 15.484L3.45896 13.4411C3.19368 13.3293 3.0156 13.0752 3.00096 12.7878C2.98645 12.5002 3.138 12.2295 3.3906 12.0915L19.8906 3.09147ZM10.2353 18.3512L11.4004 16.7995L11.4082 16.7878L9.92283 16.1628L10.2353 18.3512ZM10.3457 14.7126L17.4004 17.6833L19.1689 5.8903L10.3457 14.7126ZM5.47557 12.6618L8.85447 14.0837L16.039 6.89908L5.47557 12.6618Z" fill="#435165"/>
</svg>
