<svg width="24" height="24" viewBox="0 0 24 24" fill="none" xmlns="http://www.w3.org/2000/svg">
<path d="M6.83502 4.23108C7.92727 3.7346 9.07508 4.34314 9.53326 5.27893L10.7794 7.82483C11.1698 8.62239 11.0547 9.57594 10.4854 10.2574L9.57623 11.3453C9.39204 11.5658 9.37398 11.8094 9.4483 11.9664C9.79712 12.7024 10.3 13.2542 11.5421 13.986C11.7514 14.1093 12.0354 14.104 12.2725 13.944L13.8155 12.903C14.4546 12.4717 15.2704 12.3984 15.9766 12.7076L18.5919 13.8522C19.6035 14.2952 20.2336 15.4909 19.7364 16.6178C19.1182 18.0185 18.27 19.0086 17.2393 19.6002C16.2077 20.1923 15.0597 20.3462 13.9131 20.1949C11.6531 19.8967 9.3215 18.4069 7.4942 16.528C5.66301 14.6449 4.21846 12.2485 3.84479 9.98498C3.65637 8.84332 3.73521 7.69843 4.21881 6.67541C4.70708 5.64258 5.57502 4.80389 6.83502 4.23108ZM8.18561 5.93908C8.01305 5.58656 7.66997 5.49943 7.45612 5.59631C6.47522 6.04223 5.89141 6.6453 5.57428 7.31604C5.25251 7.99671 5.17197 8.81795 5.32428 9.74084C5.63228 11.6063 6.87226 13.7369 8.5694 15.4821C10.2704 17.2311 12.3109 18.4713 14.1094 18.7086C14.9922 18.8251 15.7962 18.698 16.4922 18.2985C17.189 17.8985 17.8453 17.1861 18.3633 16.0123C18.4752 15.7587 18.3608 15.3885 17.9903 15.2262L15.3751 14.0817C15.1397 13.9786 14.8674 14.0034 14.6544 14.1471L13.1114 15.1881C12.4311 15.6469 11.5244 15.7173 10.7803 15.2789C9.37677 14.452 8.61121 13.7027 8.09283 12.609C7.72104 11.8245 7.9412 10.9635 8.42487 10.3844L9.33405 9.29553C9.52369 9.06846 9.56261 8.75075 9.43268 8.48498L8.18561 5.93908Z" fill="currentColor"/>
</svg>
