<svg width="24" height="24" viewBox="0 0 24 24" fill="none" xmlns="http://www.w3.org/2000/svg">
<path d="M19.5 2.24609C20.7425 2.24609 21.7498 3.25362 21.75 4.49609V19.4961C21.75 20.7387 20.7426 21.7461 19.5 21.7461H4.5C3.25736 21.7461 2.25 20.7387 2.25 19.4961V4.49609C2.2502 3.25362 3.25748 2.24609 4.5 2.24609H19.5ZM3.75 14.5859V19.4961C3.75 19.9103 4.08579 20.2461 4.5 20.2461H19.5C19.9142 20.2461 20.25 19.9103 20.25 19.4961V14.5566L16.5 10.8066L13.7549 13.5508L16.3359 16.7773C16.5946 17.1007 16.542 17.5732 16.2188 17.832C15.8953 18.0908 15.4228 18.0383 15.1641 17.7148L12.1641 13.9648V13.9639L8.91504 10.0654L3.75 14.5859ZM4.5 3.74609C4.08591 3.74609 3.7502 4.08205 3.75 4.49609V12.5928L8.12109 8.76855L8.22266 8.68848C8.71295 8.34141 9.38533 8.39423 9.81543 8.81348L9.9043 8.90918L12.7998 12.3848L15.6162 9.56934L15.7109 9.4834C16.1691 9.10983 16.8309 9.10983 17.2891 9.4834L17.3838 9.56934L20.25 12.4355V4.49609C20.2498 4.08205 19.9141 3.74609 19.5 3.74609H4.5Z" fill="currentColor"/>
</svg>
