<svg width="16" height="16" viewBox="0 0 16 16" fill="none" xmlns="http://www.w3.org/2000/svg">
<path d="M5.24677 2.24577C5.44194 2.05085 5.75859 2.05092 5.9538 2.24577C6.14879 2.44097 6.14876 2.75759 5.9538 2.9528L4.40692 4.49968H9.19989C11.7954 4.49968 13.8997 6.60351 13.9001 9.1989C13.9001 11.7946 11.7956 13.8991 9.19989 13.8991H7.9997C7.72378 13.8988 7.4997 13.6751 7.4997 13.3991C7.5 13.1234 7.72397 12.8994 7.9997 12.8991H9.19989C11.2433 12.8991 12.9001 11.2423 12.9001 9.1989C12.8997 7.15579 11.2431 5.49968 9.19989 5.49968H4.40692L5.9538 7.04558C6.14885 7.24074 6.1487 7.55735 5.9538 7.75261C5.75857 7.94784 5.44204 7.94777 5.24677 7.75261L2.84638 5.35319C2.65151 5.15797 2.65142 4.84133 2.84638 4.64616L5.24677 2.24577Z" fill="#2E85FF"/>
</svg>
