<svg width="24" height="24" viewBox="0 0 24 24" fill="none" xmlns="http://www.w3.org/2000/svg">
<path fill-rule="evenodd" clip-rule="evenodd" d="M10.6191 4.02454C11.4316 3.39296 12.5695 3.39276 13.3818 4.02454L20.5605 9.60853C20.743 9.75058 20.8505 9.96906 20.8506 10.2003V18.6007C20.8505 19.8431 19.8429 20.8504 18.6006 20.8507H5.40039C4.15782 20.8507 3.1505 19.8433 3.15039 18.6007V10.2003C3.15046 9.9691 3.25701 9.75058 3.43945 9.60853L10.6191 4.02454ZM12.4609 5.20911C12.1902 4.99853 11.8109 4.99867 11.54 5.20911L4.65039 10.5665V18.6007C4.6505 19.0148 4.98624 19.3507 5.40039 19.3507H8.55078V14.4005C8.5508 13.1579 9.55815 12.1505 10.8008 12.1505H13.2002C14.4426 12.1507 15.4502 13.158 15.4502 14.4005V19.3507H18.6006C19.0145 19.3504 19.3505 19.0146 19.3506 18.6007V10.5665L12.4609 5.20911ZM10.8008 13.6505C10.3866 13.6505 10.0508 13.9863 10.0508 14.4005V19.3507H13.9502V14.4005C13.9502 13.9865 13.6142 13.6507 13.2002 13.6505H10.8008Z" fill="currentColor"/>
</svg>
